<svg width="129" height="150" viewBox="0 0 129 150" fill="none" xmlns="http://www.w3.org/2000/svg">
<title>χ²</title>
<path d="M74.963 150C71.1111 150 67.9506 149.411 65.4815 148.234C63.0124 147.154 60.8395 145.388 58.963 142.934C57.1852 140.481 55.358 137.291 53.4815 133.366L17.4815 58.2924C15.6049 54.4652 13.9259 51.423 12.4444 49.1659C11.0617 46.9087 9.08642 45.7802 6.51852 45.7802C5.62963 45.7802 4.74074 45.8783 3.85185 46.0746C3.06173 46.1727 2.32099 46.369 1.62963 46.6634V36.5064C2.71605 36.212 3.75309 35.9666 4.74074 35.7704C5.7284 35.476 7.25926 35.3288 9.33333 35.3288C12.2963 35.3288 14.7161 35.7704 16.5926 36.6536C18.5679 37.5368 20.3457 39.0579 21.9259 41.2169C23.6049 43.2777 25.3333 46.2218 27.1111 50.0491L63.8519 125.859C65.3333 128.803 66.6173 131.256 67.7037 133.219C68.8889 135.28 70.2222 136.801 71.7037 137.782C73.1852 138.862 75.1111 139.401 77.4815 139.401C78.7654 139.401 79.9506 139.303 81.037 139.107C82.2222 139.009 83.2593 138.911 84.1481 138.813V148.822C83.4568 149.019 82.6173 149.215 81.6296 149.411C80.7407 149.607 79.7531 149.755 78.6667 149.853C77.5803 149.951 76.3457 150 74.963 150ZM0 150L38.6667 89.4995L43.8519 101.423L13.9259 150H0ZM46.3704 100.098L41.1852 88.1747L70.2222 35.7704H84.1481L46.3704 100.098Z" fill="#282828"/>
<path d="M96.4074 53.1403L95.963 49.3131L115.963 26.791C117.642 24.9264 119.074 23.16 120.259 21.4917C121.444 19.8234 122.333 18.2532 122.926 16.7812C123.519 15.3091 123.815 13.8862 123.815 12.5123C123.815 9.66634 122.728 7.40923 120.556 5.74093C118.481 4.07262 116.012 3.23847 113.148 3.23847C110.284 3.23847 107.716 3.97449 105.444 5.44652C103.173 6.91855 101.049 9.32286 99.0741 12.6595L96.2593 10.7458C97.4444 8.68498 98.8765 6.86948 100.556 5.29931C102.235 3.63101 104.111 2.35525 106.185 1.47203C108.358 0.490677 110.679 0 113.148 0C115.716 0 118.037 0.539747 120.111 1.61924C122.284 2.60059 123.963 4.02356 125.148 5.88813C126.432 7.7527 127.074 9.91168 127.074 12.3651C127.074 14.3278 126.679 16.2414 125.889 18.106C125.198 19.8724 124.16 21.737 122.778 23.6997C121.395 25.6624 119.617 27.8214 117.444 30.1766L98.4815 51.2267L98.6296 49.9019H129V53.1403H96.4074Z" fill="#282828"/>
</svg>
