<svg width="163" height="431" viewBox="0 0 163 431" fill="none" xmlns="http://www.w3.org/2000/svg" xmlns:xlink="http://www.w3.org/1999/xlink">
<title>Freyr visual explanation</title>
<g clip-path="url(#clip0_1_2)">
<g filter="url(#filter0_d_1_2)">
<path fill-rule="evenodd" clip-rule="evenodd" d="M36.625 19L40 32.5L47 29L49 36.5L51 26L43 28L41.92 19H130V122H21V19H36.625Z" fill="#2B2B2B"/>
</g>
<g filter="url(#filter1_d_1_2)">
<rect x="29" y="57" width="93" height="27" rx="2" fill="#555555"/>
</g>
<g filter="url(#filter2_d_1_2)">
<rect x="29" y="87" width="93" height="27" rx="2" fill="#555555"/>
</g>
<g filter="url(#filter3_d_1_2)">
<path fill-rule="evenodd" clip-rule="evenodd" d="M38.625 27L40 32.5L47 29L49 36.5L50.8095 27H120C121.105 27 122 27.8954 122 29V52C122 53.1046 121.105 54 120 54H31C29.8954 54 29 53.1046 29 52V29C29 27.8954 29.8954 27 31 27H38.625ZM42.88 27L43 28L47 27H42.88Z" fill="#555555"/>
</g>
<g filter="url(#filter4_d_1_2)">
<circle cx="113.5" cy="40.5" r="3.5" fill="#23D234"/>
</g>
<g filter="url(#filter5_d_1_2)">
<circle cx="113.5" cy="70.5" r="3.5" fill="#E32828"/>
</g>
<g filter="url(#filter6_d_1_2)">
<circle cx="113.5" cy="100.5" r="3.5" fill="#23D234"/>
</g>
<g filter="url(#filter7_d_1_2)">
<rect x="21" y="306" width="109" height="103" fill="#2B2B2B"/>
</g>
<g filter="url(#filter8_d_1_2)">
<rect x="29" y="314" width="93" height="27" rx="2" fill="#555555"/>
</g>
<g filter="url(#filter9_d_1_2)">
<rect x="29" y="344" width="93" height="27" rx="2" fill="#555555"/>
</g>
<g filter="url(#filter10_d_1_2)">
<rect x="29" y="374" width="93" height="27" rx="2" fill="#555555"/>
</g>
<g filter="url(#filter11_d_1_2)">
<circle cx="113.5" cy="327.5" r="3.5" fill="#23D234"/>
</g>
<g filter="url(#filter12_d_1_2)">
<circle cx="113.5" cy="357.5" r="3.5" fill="#23D234"/>
</g>
<g filter="url(#filter13_d_1_2)">
<circle cx="113.5" cy="387.5" r="3.5" fill="#23D234"/>
</g>
<g filter="url(#filter14_d_1_2)">
<rect x="45" y="184" width="61" height="71" fill="white"/>
<rect x="45.5" y="184.5" width="60" height="70" stroke="black" stroke-opacity="0.03"/>
</g>
<path d="M96 19H130V41L127.5 34L124.5 37L120.5 32L118 33.5L117 30.5L109 33L107 27.5L98.5 26.5L102 22.5L96 19Z" fill="#A8EAEE" stroke="#C5F1F4"/>
<path d="M75 155L74.3415 154.247L74 154.546L74 155L75 155ZM75 183L80.7735 173L69.2265 173L75 183ZM75 136.5L74 136.5L74 137.054L74.47 137.348L75 136.5ZM79 139L79.3939 139.919L81.1519 139.166L79.53 138.152L79 139ZM72 142L71.6061 141.081L69.4614 142L71.6061 142.919L72 142ZM79 145L79.3939 145.919L81.5386 145L79.3939 144.081L79 145ZM72 148L71.6061 147.081L69.6243 147.93L71.5528 148.894L72 148ZM79 151.5L79.6585 152.253L80.7795 151.272L79.4472 150.606L79 151.5ZM74 155L74 174L76 174L76 155L74 155ZM74 122L74 136.5L76 136.5L76 122L74 122ZM74.47 137.348L78.47 139.848L79.53 138.152L75.53 135.652L74.47 137.348ZM78.6061 138.081L71.6061 141.081L72.3939 142.919L79.3939 139.919L78.6061 138.081ZM71.6061 142.919L78.6061 145.919L79.3939 144.081L72.3939 141.081L71.6061 142.919ZM78.6061 144.081L71.6061 147.081L72.3939 148.919L79.3939 145.919L78.6061 144.081ZM71.5528 148.894L78.5528 152.394L79.4472 150.606L72.4472 147.106L71.5528 148.894ZM78.3415 150.747L74.3415 154.247L75.6585 155.753L79.6585 152.253L78.3415 150.747Z" fill="#282828"/>
<path d="M75 306L80.7735 296L69.2265 296L75 306ZM74 255L74 297L76 297L76 255L74 255Z" fill="#282828"/>
<path d="M142.358 38H140.511L145.852 23.4545H147.67L153.011 38H151.165L146.818 25.7557H146.705L142.358 38ZM143.04 32.3182H150.483V33.8807H143.04V32.3182Z" fill="#282828"/>
<path d="M141.761 325V310.455H146.847C147.86 310.455 148.696 310.63 149.354 310.98C150.012 311.326 150.502 311.792 150.824 312.379C151.146 312.962 151.307 313.608 151.307 314.318C151.307 314.943 151.196 315.459 150.973 315.866C150.755 316.274 150.466 316.596 150.107 316.832C149.751 317.069 149.366 317.244 148.949 317.358V317.5C149.394 317.528 149.841 317.685 150.291 317.969C150.741 318.253 151.117 318.66 151.42 319.19C151.723 319.721 151.875 320.369 151.875 321.136C151.875 321.866 151.709 322.521 151.378 323.104C151.046 323.686 150.523 324.148 149.808 324.489C149.093 324.83 148.163 325 147.017 325H141.761ZM143.523 323.438H147.017C148.168 323.438 148.984 323.215 149.467 322.77C149.955 322.32 150.199 321.776 150.199 321.136C150.199 320.644 150.073 320.189 149.822 319.773C149.571 319.351 149.214 319.015 148.75 318.764C148.286 318.509 147.737 318.381 147.102 318.381H143.523V323.438ZM143.523 316.847H146.79C147.32 316.847 147.798 316.742 148.224 316.534C148.655 316.326 148.996 316.032 149.247 315.653C149.503 315.275 149.631 314.83 149.631 314.318C149.631 313.679 149.408 313.137 148.963 312.692C148.518 312.242 147.813 312.017 146.847 312.017H143.523V316.847Z" fill="#282828"/>
<rect x="62" y="191" width="26" height="56" fill="url(#pattern0)"/>
</g>
<defs>
<filter id="filter0_d_1_2" x="1" y="-1" width="149" height="143" filterUnits="userSpaceOnUse" color-interpolation-filters="sRGB">
<feFlood flood-opacity="0" result="BackgroundImageFix"/>
<feColorMatrix in="SourceAlpha" type="matrix" values="0 0 0 0 0 0 0 0 0 0 0 0 0 0 0 0 0 0 127 0" result="hardAlpha"/>
<feOffset/>
<feGaussianBlur stdDeviation="10"/>
<feComposite in2="hardAlpha" operator="out"/>
<feColorMatrix type="matrix" values="0 0 0 0 0 0 0 0 0 0 0 0 0 0 0 0 0 0 0.1 0"/>
<feBlend mode="normal" in2="BackgroundImageFix" result="effect1_dropShadow_1_2"/>
<feBlend mode="normal" in="SourceGraphic" in2="effect1_dropShadow_1_2" result="shape"/>
</filter>
<filter id="filter1_d_1_2" x="25" y="53" width="101" height="35" filterUnits="userSpaceOnUse" color-interpolation-filters="sRGB">
<feFlood flood-opacity="0" result="BackgroundImageFix"/>
<feColorMatrix in="SourceAlpha" type="matrix" values="0 0 0 0 0 0 0 0 0 0 0 0 0 0 0 0 0 0 127 0" result="hardAlpha"/>
<feOffset/>
<feGaussianBlur stdDeviation="2"/>
<feComposite in2="hardAlpha" operator="out"/>
<feColorMatrix type="matrix" values="0 0 0 0 0 0 0 0 0 0 0 0 0 0 0 0 0 0 0.1 0"/>
<feBlend mode="normal" in2="BackgroundImageFix" result="effect1_dropShadow_1_2"/>
<feBlend mode="normal" in="SourceGraphic" in2="effect1_dropShadow_1_2" result="shape"/>
</filter>
<filter id="filter2_d_1_2" x="25" y="83" width="101" height="35" filterUnits="userSpaceOnUse" color-interpolation-filters="sRGB">
<feFlood flood-opacity="0" result="BackgroundImageFix"/>
<feColorMatrix in="SourceAlpha" type="matrix" values="0 0 0 0 0 0 0 0 0 0 0 0 0 0 0 0 0 0 127 0" result="hardAlpha"/>
<feOffset/>
<feGaussianBlur stdDeviation="2"/>
<feComposite in2="hardAlpha" operator="out"/>
<feColorMatrix type="matrix" values="0 0 0 0 0 0 0 0 0 0 0 0 0 0 0 0 0 0 0.1 0"/>
<feBlend mode="normal" in2="BackgroundImageFix" result="effect1_dropShadow_1_2"/>
<feBlend mode="normal" in="SourceGraphic" in2="effect1_dropShadow_1_2" result="shape"/>
</filter>
<filter id="filter3_d_1_2" x="25" y="23" width="101" height="35" filterUnits="userSpaceOnUse" color-interpolation-filters="sRGB">
<feFlood flood-opacity="0" result="BackgroundImageFix"/>
<feColorMatrix in="SourceAlpha" type="matrix" values="0 0 0 0 0 0 0 0 0 0 0 0 0 0 0 0 0 0 127 0" result="hardAlpha"/>
<feOffset/>
<feGaussianBlur stdDeviation="2"/>
<feComposite in2="hardAlpha" operator="out"/>
<feColorMatrix type="matrix" values="0 0 0 0 0 0 0 0 0 0 0 0 0 0 0 0 0 0 0.1 0"/>
<feBlend mode="normal" in2="BackgroundImageFix" result="effect1_dropShadow_1_2"/>
<feBlend mode="normal" in="SourceGraphic" in2="effect1_dropShadow_1_2" result="shape"/>
</filter>
<filter id="filter4_d_1_2" x="106" y="33" width="15" height="15" filterUnits="userSpaceOnUse" color-interpolation-filters="sRGB">
<feFlood flood-opacity="0" result="BackgroundImageFix"/>
<feColorMatrix in="SourceAlpha" type="matrix" values="0 0 0 0 0 0 0 0 0 0 0 0 0 0 0 0 0 0 127 0" result="hardAlpha"/>
<feOffset/>
<feGaussianBlur stdDeviation="2"/>
<feComposite in2="hardAlpha" operator="out"/>
<feColorMatrix type="matrix" values="0 0 0 0 0.136944 0 0 0 0 0.821667 0 0 0 0 0.205417 0 0 0 1 0"/>
<feBlend mode="normal" in2="BackgroundImageFix" result="effect1_dropShadow_1_2"/>
<feBlend mode="normal" in="SourceGraphic" in2="effect1_dropShadow_1_2" result="shape"/>
</filter>
<filter id="filter5_d_1_2" x="106" y="63" width="15" height="15" filterUnits="userSpaceOnUse" color-interpolation-filters="sRGB">
<feFlood flood-opacity="0" result="BackgroundImageFix"/>
<feColorMatrix in="SourceAlpha" type="matrix" values="0 0 0 0 0 0 0 0 0 0 0 0 0 0 0 0 0 0 127 0" result="hardAlpha"/>
<feOffset/>
<feGaussianBlur stdDeviation="2"/>
<feComposite in2="hardAlpha" operator="out"/>
<feColorMatrix type="matrix" values="0 0 0 0 0.888333 0 0 0 0 0.155458 0 0 0 0 0.155458 0 0 0 1 0"/>
<feBlend mode="normal" in2="BackgroundImageFix" result="effect1_dropShadow_1_2"/>
<feBlend mode="normal" in="SourceGraphic" in2="effect1_dropShadow_1_2" result="shape"/>
</filter>
<filter id="filter6_d_1_2" x="106" y="93" width="15" height="15" filterUnits="userSpaceOnUse" color-interpolation-filters="sRGB">
<feFlood flood-opacity="0" result="BackgroundImageFix"/>
<feColorMatrix in="SourceAlpha" type="matrix" values="0 0 0 0 0 0 0 0 0 0 0 0 0 0 0 0 0 0 127 0" result="hardAlpha"/>
<feOffset/>
<feGaussianBlur stdDeviation="2"/>
<feComposite in2="hardAlpha" operator="out"/>
<feColorMatrix type="matrix" values="0 0 0 0 0.136944 0 0 0 0 0.821667 0 0 0 0 0.205417 0 0 0 1 0"/>
<feBlend mode="normal" in2="BackgroundImageFix" result="effect1_dropShadow_1_2"/>
<feBlend mode="normal" in="SourceGraphic" in2="effect1_dropShadow_1_2" result="shape"/>
</filter>
<filter id="filter7_d_1_2" x="1" y="286" width="149" height="143" filterUnits="userSpaceOnUse" color-interpolation-filters="sRGB">
<feFlood flood-opacity="0" result="BackgroundImageFix"/>
<feColorMatrix in="SourceAlpha" type="matrix" values="0 0 0 0 0 0 0 0 0 0 0 0 0 0 0 0 0 0 127 0" result="hardAlpha"/>
<feOffset/>
<feGaussianBlur stdDeviation="10"/>
<feComposite in2="hardAlpha" operator="out"/>
<feColorMatrix type="matrix" values="0 0 0 0 0 0 0 0 0 0 0 0 0 0 0 0 0 0 0.1 0"/>
<feBlend mode="normal" in2="BackgroundImageFix" result="effect1_dropShadow_1_2"/>
<feBlend mode="normal" in="SourceGraphic" in2="effect1_dropShadow_1_2" result="shape"/>
</filter>
<filter id="filter8_d_1_2" x="25" y="310" width="101" height="35" filterUnits="userSpaceOnUse" color-interpolation-filters="sRGB">
<feFlood flood-opacity="0" result="BackgroundImageFix"/>
<feColorMatrix in="SourceAlpha" type="matrix" values="0 0 0 0 0 0 0 0 0 0 0 0 0 0 0 0 0 0 127 0" result="hardAlpha"/>
<feOffset/>
<feGaussianBlur stdDeviation="2"/>
<feComposite in2="hardAlpha" operator="out"/>
<feColorMatrix type="matrix" values="0 0 0 0 0 0 0 0 0 0 0 0 0 0 0 0 0 0 0.1 0"/>
<feBlend mode="normal" in2="BackgroundImageFix" result="effect1_dropShadow_1_2"/>
<feBlend mode="normal" in="SourceGraphic" in2="effect1_dropShadow_1_2" result="shape"/>
</filter>
<filter id="filter9_d_1_2" x="25" y="340" width="101" height="35" filterUnits="userSpaceOnUse" color-interpolation-filters="sRGB">
<feFlood flood-opacity="0" result="BackgroundImageFix"/>
<feColorMatrix in="SourceAlpha" type="matrix" values="0 0 0 0 0 0 0 0 0 0 0 0 0 0 0 0 0 0 127 0" result="hardAlpha"/>
<feOffset/>
<feGaussianBlur stdDeviation="2"/>
<feComposite in2="hardAlpha" operator="out"/>
<feColorMatrix type="matrix" values="0 0 0 0 0 0 0 0 0 0 0 0 0 0 0 0 0 0 0.1 0"/>
<feBlend mode="normal" in2="BackgroundImageFix" result="effect1_dropShadow_1_2"/>
<feBlend mode="normal" in="SourceGraphic" in2="effect1_dropShadow_1_2" result="shape"/>
</filter>
<filter id="filter10_d_1_2" x="25" y="370" width="101" height="35" filterUnits="userSpaceOnUse" color-interpolation-filters="sRGB">
<feFlood flood-opacity="0" result="BackgroundImageFix"/>
<feColorMatrix in="SourceAlpha" type="matrix" values="0 0 0 0 0 0 0 0 0 0 0 0 0 0 0 0 0 0 127 0" result="hardAlpha"/>
<feOffset/>
<feGaussianBlur stdDeviation="2"/>
<feComposite in2="hardAlpha" operator="out"/>
<feColorMatrix type="matrix" values="0 0 0 0 0 0 0 0 0 0 0 0 0 0 0 0 0 0 0.1 0"/>
<feBlend mode="normal" in2="BackgroundImageFix" result="effect1_dropShadow_1_2"/>
<feBlend mode="normal" in="SourceGraphic" in2="effect1_dropShadow_1_2" result="shape"/>
</filter>
<filter id="filter11_d_1_2" x="106" y="320" width="15" height="15" filterUnits="userSpaceOnUse" color-interpolation-filters="sRGB">
<feFlood flood-opacity="0" result="BackgroundImageFix"/>
<feColorMatrix in="SourceAlpha" type="matrix" values="0 0 0 0 0 0 0 0 0 0 0 0 0 0 0 0 0 0 127 0" result="hardAlpha"/>
<feOffset/>
<feGaussianBlur stdDeviation="2"/>
<feComposite in2="hardAlpha" operator="out"/>
<feColorMatrix type="matrix" values="0 0 0 0 0.136944 0 0 0 0 0.821667 0 0 0 0 0.205417 0 0 0 1 0"/>
<feBlend mode="normal" in2="BackgroundImageFix" result="effect1_dropShadow_1_2"/>
<feBlend mode="normal" in="SourceGraphic" in2="effect1_dropShadow_1_2" result="shape"/>
</filter>
<filter id="filter12_d_1_2" x="106" y="350" width="15" height="15" filterUnits="userSpaceOnUse" color-interpolation-filters="sRGB">
<feFlood flood-opacity="0" result="BackgroundImageFix"/>
<feColorMatrix in="SourceAlpha" type="matrix" values="0 0 0 0 0 0 0 0 0 0 0 0 0 0 0 0 0 0 127 0" result="hardAlpha"/>
<feOffset/>
<feGaussianBlur stdDeviation="2"/>
<feComposite in2="hardAlpha" operator="out"/>
<feColorMatrix type="matrix" values="0 0 0 0 0.136944 0 0 0 0 0.821667 0 0 0 0 0.205417 0 0 0 1 0"/>
<feBlend mode="normal" in2="BackgroundImageFix" result="effect1_dropShadow_1_2"/>
<feBlend mode="normal" in="SourceGraphic" in2="effect1_dropShadow_1_2" result="shape"/>
</filter>
<filter id="filter13_d_1_2" x="106" y="380" width="15" height="15" filterUnits="userSpaceOnUse" color-interpolation-filters="sRGB">
<feFlood flood-opacity="0" result="BackgroundImageFix"/>
<feColorMatrix in="SourceAlpha" type="matrix" values="0 0 0 0 0 0 0 0 0 0 0 0 0 0 0 0 0 0 127 0" result="hardAlpha"/>
<feOffset/>
<feGaussianBlur stdDeviation="2"/>
<feComposite in2="hardAlpha" operator="out"/>
<feColorMatrix type="matrix" values="0 0 0 0 0.136944 0 0 0 0 0.821667 0 0 0 0 0.205417 0 0 0 1 0"/>
<feBlend mode="normal" in2="BackgroundImageFix" result="effect1_dropShadow_1_2"/>
<feBlend mode="normal" in="SourceGraphic" in2="effect1_dropShadow_1_2" result="shape"/>
</filter>
<filter id="filter14_d_1_2" x="25" y="164" width="101" height="111" filterUnits="userSpaceOnUse" color-interpolation-filters="sRGB">
<feFlood flood-opacity="0" result="BackgroundImageFix"/>
<feColorMatrix in="SourceAlpha" type="matrix" values="0 0 0 0 0 0 0 0 0 0 0 0 0 0 0 0 0 0 127 0" result="hardAlpha"/>
<feOffset/>
<feGaussianBlur stdDeviation="10"/>
<feComposite in2="hardAlpha" operator="out"/>
<feColorMatrix type="matrix" values="0 0 0 0 1 0 0 0 0 0.9 0 0 0 0 0 0 0 0 0.58 0"/>
<feBlend mode="normal" in2="BackgroundImageFix" result="effect1_dropShadow_1_2"/>
<feBlend mode="normal" in="SourceGraphic" in2="effect1_dropShadow_1_2" result="shape"/>
</filter>
<pattern id="pattern0" patternContentUnits="objectBoundingBox" width="1" height="1">
<use xlink:href="#image0_1_2" transform="matrix(0.00478632 0 0 0.00222222 -0.00974359 0)"/>
</pattern>
<clipPath id="clip0_1_2">
<rect width="163" height="431" fill="white"/>
</clipPath>
<image id="image0_1_2" width="213" height="450" xlink:href="/resources/freyr.webp"/>
</defs>
</svg>
